<?xml version="1.0" encoding="UTF-8" ?>
<!DOCTYPE svg PUBLIC "-//W3C//DTD SVG 1.1//EN" "http://www.w3.org/Graphics/SVG/1.1/DTD/svg11.dtd">
<svg width="256pt" height="256pt" viewBox="0 0 256 256" version="1.1" xmlns="http://www.w3.org/2000/svg">
<g id="#2b3d4fff">
<path fill="#2b3d4f" opacity="1.00" d=" M 0.00 0.00 L 256.00 0.00 L 256.00 256.00 L 0.00 256.00 L 0.00 0.00 M 3.08 3.08 C 2.92 9.05 2.95 15.03 3.00 21.00 C 2.99 92.33 3.00 163.67 3.00 235.00 C 2.95 240.97 2.92 246.94 3.08 252.91 C 9.05 253.08 15.03 253.05 21.00 253.00 C 92.34 253.00 163.67 253.00 235.00 253.00 C 240.97 253.05 246.94 253.08 252.91 252.92 C 253.17 243.28 252.92 233.64 253.00 224.00 C 252.99 156.33 253.01 88.67 253.00 21.00 C 253.05 15.03 253.08 9.06 252.91 3.09 C 246.94 2.92 240.97 2.95 235.00 3.00 C 163.67 3.00 92.33 3.00 21.00 3.00 C 15.02 2.95 9.05 2.92 3.08 3.08 Z" />
<path fill="#2b3d4f" opacity="1.00" d=" M 88.10 46.86 C 93.34 46.60 98.66 46.01 103.87 46.93 C 105.64 47.20 107.47 48.14 108.02 49.96 C 109.17 53.43 109.06 57.19 108.63 60.77 C 108.38 62.92 107.32 65.35 105.02 65.92 C 100.90 66.94 96.61 66.68 92.41 66.94 C 92.29 70.90 92.15 74.86 91.98 78.81 C 91.17 78.90 89.57 79.08 88.77 79.17 C 88.19 75.82 87.78 72.42 87.89 69.01 C 88.09 61.63 87.85 54.24 88.10 46.86 M 92.25 50.84 C 92.21 54.61 92.21 58.38 92.25 62.15 C 96.23 62.45 100.23 62.45 104.22 62.18 C 104.39 58.40 104.39 54.60 104.22 50.82 C 100.23 50.55 96.23 50.55 92.25 50.84 Z" />
<path fill="#2b3d4f" opacity="1.00" d=" M 118.15 46.99 C 119.45 46.96 120.75 46.93 122.05 46.91 C 122.23 51.51 122.34 56.11 122.36 60.71 C 126.26 60.79 130.17 60.80 134.07 60.73 C 134.18 56.09 134.50 51.46 134.88 46.84 C 135.71 46.77 137.38 46.62 138.21 46.55 C 138.59 50.35 138.83 54.17 138.77 57.99 C 138.59 65.00 139.19 72.04 138.10 79.00 C 137.31 78.95 135.72 78.85 134.92 78.80 C 134.69 74.21 134.56 69.60 134.60 65.00 C 130.53 64.64 126.43 64.62 122.35 64.91 C 122.34 69.55 122.20 74.18 122.00 78.81 C 121.19 78.90 119.57 79.09 118.76 79.18 C 118.19 75.82 117.78 72.42 117.89 69.01 C 118.08 61.67 117.83 54.32 118.15 46.99 Z" />
<path fill="#2b3d4f" opacity="1.00" d=" M 148.10 46.86 C 153.34 46.60 158.66 46.01 163.88 46.93 C 165.63 47.20 167.48 48.13 168.03 49.96 C 169.17 53.42 169.06 57.19 168.63 60.77 C 168.38 62.92 167.32 65.35 165.02 65.91 C 160.90 66.94 156.61 66.68 152.40 66.94 C 152.32 71.08 152.15 75.22 151.82 79.35 C 150.74 79.01 149.68 78.64 148.63 78.24 C 147.76 75.60 147.93 72.77 147.90 70.03 C 148.08 62.31 147.85 54.58 148.10 46.86 M 152.25 50.84 C 152.21 54.61 152.21 58.39 152.25 62.16 C 156.24 62.46 160.24 62.46 164.22 62.19 C 164.39 58.40 164.39 54.60 164.22 50.82 C 160.23 50.55 156.23 50.55 152.25 50.84 Z" />
<path fill="#2b3d4f" opacity="1.00" d=" M 32.95 110.98 C 34.17 109.12 35.67 107.02 38.08 106.75 C 41.62 106.18 45.21 106.68 48.76 106.96 C 48.76 107.71 48.77 109.20 48.78 109.95 C 45.30 110.19 41.82 110.40 38.34 110.55 C 35.94 114.38 32.70 118.18 32.47 122.88 C 32.98 127.34 35.83 131.03 38.12 134.75 C 41.73 134.96 45.58 134.62 48.94 136.22 C 48.96 136.62 48.99 137.42 49.00 137.82 C 45.70 139.60 41.75 139.40 38.17 138.81 C 34.52 138.29 32.89 134.56 31.25 131.72 C 29.58 128.28 27.36 124.46 28.45 120.51 C 29.41 117.11 31.10 113.97 32.95 110.98 Z" />
<path fill="#2b3d4f" opacity="1.00" d=" M 180.13 106.84 C 183.45 106.71 186.77 106.64 190.10 106.61 C 191.43 115.83 189.86 125.16 191.03 134.39 C 193.22 135.05 195.41 135.73 197.58 136.48 C 196.46 137.40 195.51 138.79 193.95 138.92 C 189.25 139.42 184.29 139.61 179.80 137.96 C 179.83 137.55 179.91 136.73 179.94 136.32 C 181.86 135.43 183.91 134.92 185.94 134.33 C 186.63 126.46 186.59 118.54 185.88 110.67 C 184.01 110.36 182.14 110.04 180.27 109.72 C 180.24 109.00 180.17 107.56 180.13 106.84 Z" />
<path fill="#2b3d4f" opacity="1.00" d=" M 62.52 116.45 C 65.48 115.26 68.80 115.21 71.91 115.75 C 74.90 116.24 77.77 118.36 78.38 121.45 C 79.16 125.36 79.17 129.49 78.25 133.38 C 77.34 137.03 73.46 138.94 69.95 139.08 C 66.04 139.40 61.28 138.62 59.13 134.94 C 57.49 131.56 57.72 127.62 57.96 123.98 C 58.14 120.94 59.49 117.62 62.52 116.45 M 64.47 120.13 C 62.40 120.81 62.41 123.30 62.14 125.09 C 62.03 127.97 61.81 131.14 63.28 133.75 C 65.61 135.50 68.87 135.40 71.58 134.75 C 73.74 134.27 74.25 131.85 74.46 129.98 C 74.76 126.85 74.75 123.52 73.34 120.64 C 70.65 119.21 67.31 119.07 64.47 120.13 Z" />
<path fill="#2b3d4f" opacity="1.00" d=" M 88.25 116.16 C 90.04 116.55 91.77 117.35 93.62 117.42 C 96.46 117.08 99.10 115.72 101.98 115.56 C 104.36 115.56 107.12 116.87 107.66 119.40 C 109.00 125.85 108.75 132.53 108.18 139.06 C 107.38 138.96 105.78 138.77 104.99 138.67 C 104.33 132.33 104.17 125.96 103.74 119.61 C 99.66 119.60 94.70 120.49 92.74 124.55 C 91.88 129.24 92.28 134.06 92.02 138.81 C 91.21 138.90 89.57 139.07 88.76 139.16 C 87.37 131.57 87.83 123.81 88.25 116.16 Z" />
<path fill="#2b3d4f" opacity="1.00" d=" M 120.43 124.56 C 117.28 122.46 118.30 116.43 122.24 115.96 C 127.86 114.97 134.06 114.84 139.05 118.00 C 138.71 118.98 138.37 119.96 138.04 120.94 C 132.91 119.79 127.63 119.23 122.41 120.04 C 126.19 123.92 131.75 124.86 136.02 127.96 C 139.80 130.72 138.51 137.87 133.72 138.66 C 129.45 139.45 124.87 139.53 120.69 138.21 C 118.79 137.64 118.42 135.41 117.47 133.94 C 123.10 134.05 128.75 135.93 134.31 134.19 C 134.14 133.44 133.81 131.94 133.64 131.19 C 129.28 128.90 124.52 127.33 120.43 124.56 Z" />
<path fill="#2b3d4f" opacity="1.00" d=" M 152.52 116.45 C 155.48 115.26 158.80 115.21 161.91 115.75 C 164.90 116.24 167.77 118.36 168.38 121.45 C 169.15 125.36 169.17 129.49 168.25 133.38 C 167.34 137.03 163.46 138.95 159.95 139.08 C 156.04 139.40 151.27 138.63 149.13 134.93 C 147.49 131.56 147.72 127.62 147.96 123.97 C 148.14 120.94 149.49 117.62 152.52 116.45 M 154.47 120.13 C 151.86 121.24 152.30 124.69 152.05 127.03 C 152.19 129.76 151.80 134.12 155.33 134.79 C 158.15 135.33 162.55 135.83 163.88 132.58 C 164.96 128.72 165.02 124.34 163.34 120.64 C 160.65 119.21 157.30 119.07 154.47 120.13 Z" />
<path fill="#2b3d4f" opacity="1.00" d=" M 208.93 119.93 C 210.86 115.84 215.98 115.15 220.01 115.47 C 223.41 115.57 227.09 117.32 228.26 120.71 C 229.08 123.61 228.71 126.67 228.69 129.64 C 222.99 130.01 217.28 130.02 211.59 130.37 C 212.57 131.68 213.14 133.53 214.66 134.33 C 218.81 135.55 223.25 134.45 227.44 135.46 C 228.20 136.24 228.93 137.06 229.63 137.92 C 224.42 139.25 218.83 139.85 213.59 138.34 C 210.70 137.53 208.38 134.98 208.12 131.94 C 207.64 127.96 207.46 123.72 208.93 119.93 M 214.43 120.12 C 212.25 121.04 212.50 123.86 211.75 125.75 C 216.02 126.07 220.32 126.11 224.60 125.90 C 224.21 124.16 224.22 122.25 223.28 120.69 C 220.67 119.08 217.25 119.12 214.43 120.12 Z" />
<path fill="#2b3d4f" opacity="1.00" d=" M 88.16 166.99 C 89.45 166.96 90.74 166.94 92.03 166.92 C 92.68 176.22 92.10 185.54 92.29 194.85 C 97.47 194.94 102.64 195.06 107.81 195.02 C 108.29 196.07 108.76 197.12 109.24 198.17 C 102.26 199.57 95.14 199.10 88.08 198.89 C 87.93 188.26 87.84 177.62 88.16 166.99 Z" />
<path fill="#2b3d4f" opacity="1.00" d=" M 122.52 176.45 C 125.48 175.26 128.80 175.21 131.91 175.75 C 134.89 176.24 137.77 178.36 138.38 181.45 C 139.16 185.36 139.17 189.49 138.25 193.38 C 137.34 197.03 133.46 198.94 129.95 199.08 C 126.04 199.41 121.27 198.63 119.13 194.93 C 117.49 191.55 117.72 187.62 117.96 183.98 C 118.14 180.94 119.49 177.63 122.52 176.45 M 124.47 180.13 C 122.40 180.81 122.41 183.30 122.14 185.09 C 122.04 187.97 121.80 191.15 123.28 193.75 C 125.61 195.49 128.86 195.40 131.57 194.75 C 133.74 194.28 134.25 191.84 134.46 189.98 C 134.76 186.85 134.76 183.52 133.34 180.64 C 130.65 179.22 127.31 179.06 124.47 180.13 Z" />
<path fill="#2b3d4f" opacity="1.00" d=" M 148.38 181.37 C 149.25 177.68 153.22 175.09 156.96 175.80 C 160.70 176.27 164.48 176.81 168.25 176.19 C 168.99 183.45 168.80 190.77 168.74 198.05 C 168.76 201.08 168.10 204.56 165.25 206.21 C 160.57 208.93 154.90 207.72 149.82 207.13 C 149.92 206.38 150.11 204.86 150.20 204.10 C 154.46 203.80 158.86 204.14 162.96 202.82 C 164.65 200.85 164.27 197.96 164.74 195.56 C 161.88 196.28 159.01 197.22 156.03 197.25 C 152.38 197.22 148.83 194.46 148.22 190.80 C 147.63 187.70 147.63 184.45 148.38 181.37 M 154.49 180.06 C 152.15 181.00 152.20 183.93 152.06 186.04 C 152.13 188.40 152.07 191.59 154.56 192.80 C 158.68 194.68 164.13 191.47 164.46 186.95 C 164.83 182.03 158.96 178.01 154.49 180.06 Z" />
</g>
<g id="#6bd0c3ff">
<path fill="#6bd0c3" opacity="1.00" d=" M 3.08 3.08 C 9.05 2.92 15.02 2.95 21.00 3.00 C 92.33 3.00 163.67 3.00 235.00 3.00 C 240.97 2.95 246.94 2.92 252.91 3.09 C 253.08 9.06 253.05 15.03 253.00 21.00 C 253.01 88.67 252.99 156.33 253.00 224.00 C 252.92 233.64 253.17 243.28 252.91 252.92 C 246.94 253.08 240.97 253.05 235.00 253.00 C 163.67 253.00 92.34 253.00 21.00 253.00 C 15.03 253.05 9.05 253.08 3.08 252.91 C 2.92 246.94 2.95 240.97 3.00 235.00 C 3.00 163.67 2.99 92.33 3.00 21.00 C 2.95 15.03 2.92 9.05 3.08 3.08 M 88.10 46.86 C 87.85 54.24 88.09 61.63 87.89 69.01 C 87.78 72.42 88.19 75.82 88.77 79.17 C 89.57 79.08 91.17 78.90 91.98 78.81 C 92.15 74.86 92.29 70.90 92.41 66.94 C 96.61 66.68 100.90 66.94 105.02 65.92 C 107.32 65.35 108.38 62.92 108.63 60.77 C 109.06 57.19 109.17 53.43 108.02 49.96 C 107.47 48.14 105.64 47.20 103.87 46.93 C 98.66 46.01 93.34 46.60 88.10 46.86 M 118.15 46.99 C 117.83 54.32 118.08 61.67 117.89 69.01 C 117.78 72.42 118.19 75.82 118.76 79.18 C 119.57 79.09 121.19 78.90 122.00 78.81 C 122.20 74.18 122.34 69.55 122.35 64.91 C 126.43 64.62 130.53 64.64 134.60 65.00 C 134.56 69.60 134.69 74.21 134.92 78.80 C 135.72 78.85 137.31 78.95 138.10 79.00 C 139.19 72.04 138.59 65.00 138.77 57.99 C 138.83 54.17 138.59 50.35 138.21 46.55 C 137.38 46.62 135.71 46.77 134.88 46.84 C 134.50 51.46 134.18 56.09 134.07 60.73 C 130.17 60.80 126.26 60.79 122.36 60.71 C 122.34 56.11 122.23 51.51 122.05 46.91 C 120.75 46.93 119.45 46.96 118.15 46.99 M 148.10 46.86 C 147.85 54.58 148.08 62.31 147.90 70.03 C 147.93 72.77 147.76 75.60 148.63 78.24 C 149.68 78.64 150.74 79.01 151.82 79.35 C 152.15 75.22 152.32 71.08 152.40 66.94 C 156.61 66.68 160.90 66.94 165.02 65.91 C 167.32 65.35 168.38 62.92 168.63 60.77 C 169.06 57.19 169.17 53.42 168.03 49.96 C 167.48 48.13 165.63 47.20 163.88 46.93 C 158.66 46.01 153.34 46.60 148.10 46.86 M 32.95 110.98 C 31.10 113.97 29.41 117.11 28.45 120.51 C 27.36 124.46 29.58 128.28 31.25 131.72 C 32.89 134.56 34.52 138.29 38.17 138.81 C 41.75 139.40 45.70 139.60 49.00 137.82 C 48.99 137.42 48.96 136.62 48.94 136.22 C 45.58 134.62 41.73 134.96 38.12 134.75 C 35.83 131.03 32.98 127.34 32.47 122.88 C 32.70 118.18 35.94 114.38 38.34 110.55 C 41.82 110.40 45.30 110.19 48.78 109.95 C 48.77 109.20 48.76 107.71 48.76 106.96 C 45.21 106.68 41.62 106.18 38.08 106.75 C 35.67 107.02 34.17 109.12 32.95 110.98 M 180.13 106.84 C 180.17 107.56 180.24 109.00 180.27 109.72 C 182.14 110.04 184.01 110.36 185.88 110.67 C 186.59 118.54 186.63 126.46 185.94 134.33 C 183.91 134.92 181.86 135.43 179.94 136.32 C 179.91 136.73 179.83 137.55 179.80 137.96 C 184.29 139.61 189.25 139.42 193.95 138.92 C 195.51 138.79 196.46 137.40 197.58 136.48 C 195.41 135.73 193.22 135.05 191.03 134.39 C 189.86 125.16 191.43 115.83 190.10 106.61 C 186.77 106.64 183.45 106.71 180.13 106.84 M 62.52 116.45 C 59.49 117.62 58.14 120.94 57.96 123.98 C 57.72 127.62 57.49 131.56 59.13 134.94 C 61.28 138.62 66.04 139.40 69.95 139.08 C 73.46 138.94 77.34 137.03 78.25 133.38 C 79.17 129.49 79.16 125.36 78.38 121.45 C 77.77 118.36 74.90 116.24 71.91 115.75 C 68.80 115.21 65.48 115.26 62.52 116.45 M 88.25 116.16 C 87.83 123.81 87.37 131.57 88.76 139.16 C 89.57 139.07 91.21 138.90 92.02 138.81 C 92.28 134.06 91.88 129.24 92.74 124.55 C 94.70 120.49 99.66 119.60 103.74 119.61 C 104.17 125.96 104.33 132.33 104.99 138.67 C 105.78 138.77 107.38 138.96 108.18 139.06 C 108.75 132.53 109.00 125.85 107.66 119.40 C 107.12 116.87 104.36 115.56 101.98 115.56 C 99.10 115.72 96.46 117.08 93.62 117.42 C 91.77 117.35 90.04 116.55 88.25 116.16 M 120.43 124.56 C 124.52 127.33 129.28 128.90 133.64 131.19 C 133.81 131.94 134.14 133.44 134.31 134.19 C 128.75 135.93 123.10 134.05 117.47 133.94 C 118.42 135.41 118.79 137.64 120.69 138.21 C 124.87 139.53 129.45 139.45 133.72 138.66 C 138.51 137.87 139.80 130.72 136.02 127.96 C 131.75 124.86 126.19 123.92 122.41 120.04 C 127.63 119.23 132.91 119.79 138.04 120.94 C 138.37 119.96 138.71 118.98 139.05 118.00 C 134.06 114.84 127.86 114.97 122.24 115.96 C 118.30 116.43 117.28 122.46 120.43 124.56 M 152.52 116.45 C 149.49 117.62 148.14 120.94 147.96 123.97 C 147.72 127.62 147.49 131.56 149.13 134.93 C 151.27 138.63 156.04 139.40 159.95 139.08 C 163.46 138.95 167.34 137.03 168.25 133.38 C 169.17 129.49 169.15 125.36 168.38 121.45 C 167.77 118.36 164.90 116.24 161.91 115.75 C 158.80 115.21 155.48 115.26 152.52 116.45 M 208.93 119.93 C 207.46 123.72 207.64 127.96 208.12 131.94 C 208.38 134.98 210.70 137.53 213.59 138.34 C 218.83 139.85 224.42 139.25 229.63 137.92 C 228.93 137.06 228.20 136.24 227.44 135.46 C 223.25 134.45 218.81 135.55 214.66 134.33 C 213.14 133.53 212.57 131.68 211.59 130.37 C 217.28 130.02 222.99 130.01 228.69 129.64 C 228.71 126.67 229.08 123.61 228.26 120.71 C 227.09 117.32 223.41 115.57 220.01 115.47 C 215.98 115.15 210.86 115.84 208.93 119.93 M 88.16 166.99 C 87.84 177.62 87.93 188.26 88.08 198.89 C 95.14 199.10 102.26 199.57 109.24 198.17 C 108.76 197.12 108.29 196.07 107.81 195.02 C 102.64 195.06 97.47 194.94 92.29 194.85 C 92.10 185.54 92.68 176.22 92.03 166.92 C 90.74 166.94 89.45 166.96 88.16 166.99 M 122.52 176.45 C 119.49 177.63 118.14 180.94 117.96 183.98 C 117.72 187.62 117.49 191.55 119.13 194.93 C 121.27 198.63 126.04 199.41 129.95 199.08 C 133.46 198.94 137.34 197.03 138.25 193.38 C 139.17 189.49 139.16 185.36 138.38 181.45 C 137.77 178.36 134.89 176.24 131.91 175.75 C 128.80 175.21 125.48 175.26 122.52 176.45 M 148.38 181.37 C 147.63 184.45 147.63 187.70 148.22 190.80 C 148.83 194.46 152.38 197.22 156.03 197.25 C 159.01 197.22 161.88 196.28 164.74 195.56 C 164.27 197.96 164.65 200.85 162.96 202.82 C 158.86 204.14 154.46 203.80 150.20 204.10 C 150.11 204.86 149.92 206.38 149.82 207.13 C 154.90 207.72 160.57 208.93 165.25 206.21 C 168.10 204.56 168.76 201.08 168.74 198.05 C 168.80 190.77 168.99 183.45 168.25 176.19 C 164.48 176.81 160.70 176.27 156.96 175.80 C 153.22 175.09 149.25 177.68 148.38 181.37 Z" />
<path fill="#6bd0c3" opacity="1.00" d=" M 92.25 50.84 C 96.23 50.55 100.23 50.55 104.22 50.82 C 104.39 54.60 104.39 58.40 104.22 62.18 C 100.23 62.45 96.23 62.45 92.25 62.15 C 92.21 58.38 92.21 54.61 92.25 50.84 Z" />
<path fill="#6bd0c3" opacity="1.00" d=" M 152.25 50.84 C 156.23 50.55 160.23 50.55 164.22 50.82 C 164.39 54.60 164.39 58.40 164.22 62.19 C 160.24 62.46 156.24 62.46 152.25 62.16 C 152.21 58.39 152.21 54.61 152.25 50.84 Z" />
<path fill="#6bd0c3" opacity="1.00" d=" M 64.47 120.13 C 67.31 119.07 70.65 119.21 73.34 120.64 C 74.75 123.52 74.76 126.85 74.46 129.98 C 74.25 131.85 73.74 134.27 71.58 134.75 C 68.87 135.40 65.61 135.50 63.28 133.75 C 61.81 131.14 62.03 127.97 62.14 125.09 C 62.41 123.30 62.40 120.81 64.47 120.13 Z" />
<path fill="#6bd0c3" opacity="1.00" d=" M 154.47 120.13 C 157.30 119.07 160.65 119.21 163.34 120.64 C 165.02 124.34 164.96 128.72 163.88 132.58 C 162.55 135.83 158.15 135.33 155.33 134.79 C 151.80 134.12 152.19 129.76 152.05 127.03 C 152.30 124.69 151.86 121.24 154.47 120.13 Z" />
<path fill="#6bd0c3" opacity="1.00" d=" M 214.43 120.12 C 217.25 119.12 220.67 119.08 223.28 120.69 C 224.22 122.25 224.21 124.16 224.60 125.90 C 220.32 126.11 216.02 126.07 211.75 125.75 C 212.50 123.86 212.25 121.04 214.43 120.12 Z" />
<path fill="#6bd0c3" opacity="1.00" d=" M 124.47 180.13 C 127.31 179.06 130.65 179.22 133.34 180.64 C 134.76 183.52 134.76 186.85 134.46 189.98 C 134.25 191.84 133.74 194.28 131.57 194.75 C 128.86 195.40 125.61 195.49 123.28 193.75 C 121.80 191.15 122.04 187.97 122.14 185.09 C 122.41 183.30 122.40 180.81 124.47 180.13 Z" />
<path fill="#6bd0c3" opacity="1.00" d=" M 154.49 180.06 C 158.96 178.01 164.83 182.03 164.46 186.95 C 164.13 191.47 158.68 194.68 154.56 192.80 C 152.07 191.59 152.13 188.40 152.06 186.04 C 152.20 183.93 152.15 181.00 154.49 180.06 Z" />
</g>
</svg>
